<?xml version="1.0" standalone="no"?>
<!DOCTYPE svg PUBLIC "-//W3C//DTD SVG 20010904//EN"
 "http://www.w3.org/TR/2001/REC-SVG-20010904/DTD/svg10.dtd">
<svg version="1.0" xmlns="http://www.w3.org/2000/svg"
 width="180.000000pt" height="180.000000pt" viewBox="0 0 180.000000 180.000000"
 preserveAspectRatio="xMidYMid meet">

<g transform="translate(0.000000,180.000000) scale(0.100000,-0.100000)"
fill="#000000" stroke="none">
<path d="M1079 1215 c-34 -36 -68 -65 -74 -65 -6 0 -37 27 -69 60 -32 33 -66
60 -75 60 -18 0 -151 -129 -151 -146 0 -16 136 -144 152 -144 7 0 43 29 78 65
35 36 68 65 71 65 4 0 31 -25 60 -55 52 -55 87 -74 109 -60 8 5 -10 30 -51 71
l-63 63 64 67 c50 51 60 68 49 75 -25 16 -36 10 -100 -56z m-229 -92 l0 -77
-40 39 -40 39 37 38 c20 21 38 38 40 38 2 0 3 -35 3 -77z m68 34 l32 -33 -35
-34 -35 -34 0 67 c0 37 1 67 3 67 2 0 17 -15 35 -33z"/>
<path d="M652 1197 l-72 -72 73 -73 c75 -74 82 -78 107 -62 12 8 3 21 -47 72
l-62 63 60 62 c33 34 58 67 54 73 -14 23 -44 6 -113 -63z"/>
<path d="M305 798 c-37 -21 -44 -41 -45 -119 0 -82 16 -112 65 -125 48 -12
115 23 115 61 0 18 -42 20 -69 3 -37 -23 -52 -4 -49 64 3 55 6 63 24 66 11 2
27 -4 34 -13 14 -17 46 -20 56 -4 10 16 -15 55 -43 68 -30 14 -62 14 -88 -1z"/>
<path d="M520 798 c-39 -21 -51 -55 -48 -131 4 -80 24 -106 85 -114 32 -4 45
-1 69 20 28 24 29 29 29 106 0 68 -3 84 -21 101 -26 26 -81 35 -114 18z m68
-121 c3 -66 2 -68 -20 -65 -20 3 -23 9 -26 57 -4 65 2 84 25 79 15 -3 19 -16
21 -71z"/>
<path d="M700 680 l0 -130 65 0 c57 0 69 3 90 25 22 22 25 32 25 105 0 73 -3
83 -25 105 -21 22 -33 25 -90 25 l-65 0 0 -130z m115 0 c0 -53 -1 -55 -27 -58
-28 -3 -28 -3 -28 58 0 61 0 61 28 58 26 -3 27 -5 27 -58z"/>
<path d="M927 804 c-4 -4 -7 -63 -7 -131 l0 -123 90 0 90 0 0 30 c0 28 -1 29
-57 32 -46 2 -59 7 -61 21 -3 15 5 17 57 17 l61 0 0 30 0 30 -61 0 c-52 0 -60
2 -57 18 2 13 15 18 61 20 57 3 58 4 55 30 -3 27 -4 27 -83 30 -45 1 -84 0
-88 -4z"/>
<path d="M1169 781 c-27 -27 -29 -35 -29 -101 0 -66 2 -74 30 -102 27 -27 36
-30 73 -25 42 6 77 34 77 63 0 17 -43 19 -69 2 -37 -23 -52 -4 -49 64 3 55 6
63 24 66 11 2 27 -4 34 -13 14 -17 46 -20 55 -5 11 18 -6 50 -35 65 -44 23
-78 19 -111 -14z"/>
<path d="M1360 680 l0 -130 30 0 c28 0 30 3 30 38 l1 37 32 -38 c23 -26 40
-37 60 -37 15 0 27 4 27 8 0 5 -18 33 -40 62 -22 29 -40 57 -40 61 0 4 18 30
40 58 23 28 38 56 35 61 -13 22 -51 9 -82 -27 l-32 -38 -1 38 c0 34 -2 37 -30
37 l-30 0 0 -130z"/>
</g>
</svg>
